<?xml version="1.0" standalone="no"?>
<!DOCTYPE svg PUBLIC "-//W3C//DTD SVG 20010904//EN"
 "http://www.w3.org/TR/2001/REC-SVG-20010904/DTD/svg10.dtd">
<svg version="1.0" xmlns="http://www.w3.org/2000/svg"
 width="600.000000pt" height="600.000000pt" viewBox="0 0 600.000000 600.000000"
 preserveAspectRatio="xMidYMid meet">
<metadata>
Created by potrace 1.14, written by Peter Selinger 2001-2017
</metadata>
<g transform="translate(0.000000,600.000000) scale(0.100000,-0.100000)"
fill="#000000" stroke="none">
<path d="M3040 5111 c0 -4 -29 -11 -64 -14 -136 -13 -289 -85 -402 -189 l-44
-40 -81 16 c-166 33 -326 30 -448 -10 -126 -42 -211 -94 -300 -182 -80 -80
-143 -171 -157 -228 -3 -11 -19 -25 -36 -32 -41 -15 -213 -111 -235 -131 -10
-9 -45 -38 -78 -64 -65 -52 -175 -173 -175 -193 0 -7 -4 -14 -9 -16 -13 -5
-66 -126 -80 -182 -7 -27 -11 -95 -10 -150 2 -102 -4 -154 -24 -191 -6 -11
-13 -31 -15 -45 -2 -14 -44 -153 -94 -309 -49 -156 -92 -291 -93 -300 -2 -9
-4 -17 -5 -18 -2 -2 -4 -7 -5 -13 -1 -5 -4 -13 -5 -17 -1 -5 -3 -12 -5 -18 -1
-5 -3 -13 -5 -17 -1 -5 -4 -12 -5 -18 -1 -5 -3 -11 -5 -12 -1 -2 -3 -10 -5
-18 -1 -8 -24 -82 -51 -165 -55 -174 -64 -249 -39 -346 17 -66 80 -202 113
-244 64 -81 168 -184 250 -247 51 -40 104 -81 115 -92 34 -29 331 -170 442
-210 423 -152 855 -223 1409 -233 281 -5 632 8 660 25 8 5 66 11 116 11 47 1
324 52 464 86 147 35 372 104 441 135 22 10 81 36 132 58 50 21 151 75 224
118 114 68 150 96 265 209 152 150 183 199 235 375 29 98 25 168 -16 291 -20
57 -38 120 -41 139 -3 19 -9 40 -12 45 -4 6 -7 15 -8 20 -2 13 -83 271 -145
460 -27 83 -51 161 -53 175 -3 14 -5 26 -7 28 -1 1 -3 7 -4 12 -1 6 -4 12 -5
15 -1 3 -3 8 -4 13 -1 4 -5 13 -9 20 -5 6 -6 12 -3 12 3 0 -7 33 -20 73 -22
62 -26 91 -27 212 -2 133 -4 144 -33 212 -38 86 -106 185 -179 258 -59 59
-260 197 -346 238 -49 23 -57 31 -77 79 -32 76 -128 195 -203 252 -139 105
-280 149 -490 151 l-135 2 -55 40 c-114 85 -281 153 -375 153 -18 0 -36 5 -39
10 -8 12 -105 13 -105 1z m184 -442 c62 -23 119 -63 136 -95 21 -39 93 -92
144 -106 36 -10 55 -10 88 0 24 7 69 18 101 24 109 22 257 -20 335 -95 34 -33
50 -62 83 -157 27 -75 58 -104 174 -160 250 -123 395 -254 395 -359 0 -54
-102 -176 -195 -234 -89 -54 -246 -127 -340 -158 -55 -18 -107 -35 -115 -37
-8 -3 -17 -6 -20 -6 -3 -1 -10 -4 -15 -8 -6 -4 -51 -14 -100 -23 -50 -9 -100
-21 -112 -27 -12 -6 -28 -8 -36 -5 -8 3 -19 1 -24 -4 -5 -5 -58 -14 -119 -19
-60 -6 -142 -15 -182 -20 -40 -6 -102 -10 -136 -10 -34 0 -65 -2 -68 -5 -7 -7
-439 -7 -446 0 -3 3 -31 5 -61 5 -31 0 -111 7 -178 15 -67 8 -135 16 -150 16
-42 1 -157 22 -168 30 -5 4 -41 12 -80 18 -38 6 -95 18 -125 27 -30 9 -57 16
-60 17 -48 3 -360 138 -439 191 -181 120 -233 211 -182 321 43 92 223 222 401
289 25 10 57 28 72 41 35 30 78 93 78 114 0 30 47 116 81 149 66 64 132 94
222 99 107 7 177 -8 282 -62 47 -24 85 -41 85 -38 0 3 7 0 15 -7 29 -24 128
10 177 61 15 16 41 56 59 89 35 65 61 89 135 121 92 41 192 44 288 8z m-729
-1954 c63 -30 139 -108 166 -171 11 -24 23 -76 26 -114 l6 -70 355 0 c334 0
354 1 346 18 -4 9 -10 43 -12 74 -7 107 59 210 172 268 55 27 73 32 115 28 75
-7 155 -52 198 -112 41 -56 72 -134 73 -182 1 -86 -61 -193 -132 -230 l-29
-15 50 -47 c85 -80 124 -197 101 -305 -15 -76 -81 -172 -150 -219 -30 -20 -57
-35 -59 -32 -2 2 -11 -2 -19 -9 -9 -7 -43 -12 -81 -12 -111 0 -207 62 -276
180 -18 29 -26 63 -31 123 l-7 82 -351 0 -351 0 0 -87 c0 -76 -4 -95 -27 -138
-14 -27 -41 -64 -60 -81 -36 -33 -88 -68 -88 -59 0 3 -14 -2 -32 -11 -89 -46
-255 42 -311 165 -30 64 -29 169 0 231 22 46 88 123 113 132 9 3 -2 20 -33 50
-143 143 -139 352 9 487 101 93 207 111 319 56z"/>
<path d="M2180 4123 c-35 -14 -90 -67 -109 -106 -46 -96 -12 -211 84 -285 156
-120 405 -202 611 -202 116 0 161 19 203 86 68 107 40 228 -67 291 -34 20 -63
27 -145 33 -63 6 -133 19 -182 35 -86 28 -183 79 -191 100 -14 35 -153 67
-204 48z"/>
<path d="M3695 4123 c-26 -7 -76 -42 -95 -67 -8 -11 -24 -42 -35 -70 -16 -38
-27 -51 -49 -57 -81 -22 -136 -93 -144 -184 -5 -70 15 -121 65 -165 47 -42 70
-50 136 -50 168 0 319 118 363 282 28 105 13 201 -39 256 -48 52 -128 73 -202
55z"/>
</g>
</svg>
